<mxfile host="app.diagrams.net" modified="2023-07-03T14:59:16.305Z" agent="Mozilla/5.0 (Macintosh; Intel Mac OS X 10_15_7) AppleWebKit/605.1.15 (KHTML, like Gecko) Version/16.5.1 Safari/605.1.15" etag="HkFwKMMznQVWPOGpY3oA" version="21.5.2" type="github">
  <diagram name="Page-1" id="dkmab9GLrClfwDP9RH8d">
    <mxGraphModel dx="492" dy="466" grid="1" gridSize="10" guides="1" tooltips="1" connect="1" arrows="1" fold="1" page="1" pageScale="1" pageWidth="827" pageHeight="1169" math="0" shadow="0">
      <root>
        <mxCell id="0" />
        <mxCell id="1" parent="0" />
        <mxCell id="lK_kKArGwj4I3FMrGu4r-6" style="edgeStyle=orthogonalEdgeStyle;rounded=0;orthogonalLoop=1;jettySize=auto;html=1;" edge="1" parent="1" source="lK_kKArGwj4I3FMrGu4r-1">
          <mxGeometry relative="1" as="geometry">
            <mxPoint x="480" y="260" as="targetPoint" />
          </mxGeometry>
        </mxCell>
        <mxCell id="lK_kKArGwj4I3FMrGu4r-1" value="" style="image;aspect=fixed;html=1;points=[];align=center;fontSize=12;image=img/lib/azure2/analytics/Log_Analytics_Workspaces.svg;" vertex="1" parent="1">
          <mxGeometry x="320" y="400" width="64" height="64" as="geometry" />
        </mxCell>
        <mxCell id="lK_kKArGwj4I3FMrGu4r-5" style="edgeStyle=orthogonalEdgeStyle;rounded=0;orthogonalLoop=1;jettySize=auto;html=1;" edge="1" parent="1" source="lK_kKArGwj4I3FMrGu4r-2" target="lK_kKArGwj4I3FMrGu4r-3">
          <mxGeometry relative="1" as="geometry">
            <Array as="points">
              <mxPoint x="480" y="312.0000000000001" />
              <mxPoint x="480" y="192" />
            </Array>
          </mxGeometry>
        </mxCell>
        <mxCell id="lK_kKArGwj4I3FMrGu4r-2" value="" style="image;aspect=fixed;html=1;points=[];align=center;fontSize=12;image=img/lib/azure2/analytics/Log_Analytics_Workspaces.svg;" vertex="1" parent="1">
          <mxGeometry x="320" y="280" width="64" height="64" as="geometry" />
        </mxCell>
        <mxCell id="lK_kKArGwj4I3FMrGu4r-3" value="" style="image;aspect=fixed;html=1;points=[];align=center;fontSize=12;image=img/lib/azure2/analytics/Log_Analytics_Workspaces.svg;" vertex="1" parent="1">
          <mxGeometry x="320" y="160" width="64" height="64" as="geometry" />
        </mxCell>
        <mxCell id="lK_kKArGwj4I3FMrGu4r-4" value="" style="image;aspect=fixed;html=1;points=[];align=center;fontSize=12;image=img/lib/azure2/analytics/Log_Analytics_Workspaces.svg;" vertex="1" parent="1">
          <mxGeometry x="320" y="520.5" width="64" height="64" as="geometry" />
        </mxCell>
      </root>
    </mxGraphModel>
  </diagram>
</mxfile>
